<svg
  class="logo"
  width="458"
  height="130"
  viewBox="0 0 458 130"
  fill="none"
  xmlns="http://www.w3.org/2000/svg"
  role="img"
  aria-label="Django Gigs"
>
  <g clip-path="url(#clip0_1_2)">
    <path
      d="M45.5 53.1C38.9 53.1 35.7 58.9 35.7 66.1C35.7 73.8 39.5 78.6 45.4 78.6C49.5 78.6 52.9 75.8 53.7 71.8C53.9 70.9 54 69.7 54 68.6V62.6C54 61.8 54 60.8 53.8 60C53 56.2 49.9 53.1 45.5 53.1ZM98.9 52.9C93.7 52.9 89.5 57.6 89.5 65.9C89.5 72.7 92.9 78.1 98.8 78.1C102.5 78.1 105.4 75.7 106.4 72.4C106.8 71.3 106.9 69.8 106.9 68.6V61.9C106.9 61.1 106.8 60.1 106.6 59.3C105.6 55.4 102.9 52.9 98.9 52.9ZM145.6 61.1L112.6 4.1C111.5 2.1 108.7 0.5 106.4 0.5H40.5C38.2 0.5 35.4 2.1 34.3 4.1L1.4 61.1C0.299997 63.1 0.299997 66.3 1.4 68.3L34.3 125.4C35.4 127.4 38.2 129 40.5 129H106.4C108.7 129 111.5 127.4 112.6 125.4L145.5 68.3C146.7 66.4 146.7 63.1 145.6 61.1ZM56 89L55.4 82.4H55.1C52.3 87.5 46.7 90.1 40.8 90.1C29.9 90.1 21.2 80.8 21.2 66.6C21.1 51.2 30.7 42.3 41.7 42.3C47.4 42.3 51.7 44.4 53.8 47.4H54V22.4H68.2V75.3C68.2 80.5 68.4 85.9 68.6 89H56ZM121.1 56.8V82.3C121.1 91.1 119.3 98.3 114.1 102.9C109.1 107.2 102.3 108.5 95.6 108.5C89.5 108.5 83.2 107.3 79.1 105L81.9 94.1C84.8 95.8 89.8 97.6 95.2 97.6C101.9 97.6 107.1 94 107.1 85.5V82.6H106.9C104.2 86.3 99.8 88.5 94.5 88.5C83.2 88.5 75.1 79.3 75.1 66.2C75.1 51.4 84.6 42 95.9 42C102.2 42 106.1 44.7 108.4 48.6H108.6L109.1 43.1H121.5C121.3 46.2 121.1 50 121.1 56.8Z"
      fill="#fff"
    />
    <path
      d="M195.1 37.6V71.5C195.1 74.8 195.2 78.3 195.3 80.3H187.2L186.8 76H186.6C184.8 79.2 181.2 80.9 177.4 80.9C170.4 80.9 164.9 75 164.9 65.8C164.8 56 171 50.2 178 50.2C181.7 50.2 184.4 51.5 185.7 53.5H185.8V37.5H195.1V37.6ZM186 63.4C186 62.9 186 62.3 185.9 61.7C185.4 59.2 183.4 57.3 180.6 57.3C176.4 57.3 174.3 61 174.3 65.6C174.3 70.5 176.8 73.6 180.5 73.6C183.1 73.6 185.3 71.8 185.8 69.2C185.9 68.6 186 67.9 186 67.2V63.4ZM195.3 86C197.6 85.8 199.6 85.3 200.7 84.1C202 82.7 202.5 80.4 202.5 74.6V50.9H211.6V76.7C211.6 83.1 210.2 87 207.5 89.5C204.8 92 200.5 93.1 196.2 93.1L195.3 86ZM206.9 47.3C204 47.3 202.2 45.3 202.2 42.7C202.2 40.1 204.1 38.1 207.1 38.1C210.1 38.1 211.8 40.1 211.9 42.7C211.8 45.2 210 47.3 206.9 47.3ZM241.9 73.1C241.9 75.9 242 78.6 242.4 80.2H234.2L233.7 77.3H233.5C231.6 79.6 228.6 80.9 225.1 80.9C219.2 80.9 215.6 76.6 215.6 71.9C215.6 64.3 222.4 60.7 232.8 60.7V60.3C232.8 58.7 232 56.5 227.5 56.5C224.5 56.5 221.3 57.5 219.4 58.7L217.7 52.9C219.7 51.8 223.8 50.3 229.1 50.3C238.9 50.3 241.9 56.1 241.9 63V73.1ZM233.1 66.4C228.3 66.4 224.6 67.5 224.6 71C224.6 73.3 226.2 74.5 228.2 74.5C230.4 74.5 232.3 73 232.9 71.1C233 70.6 233.1 70.1 233.1 69.5V66.4ZM248 60.2C248 56.5 247.9 53.5 247.8 50.8H255.7L256.1 54.9H256.3C257.5 53 260.4 50.2 265.4 50.2C271.4 50.2 275.9 54.2 275.9 62.9V80.2H266.8V64C266.8 60.2 265.5 57.6 262.2 57.6C259.7 57.6 258.2 59.3 257.5 61C257.3 61.6 257.2 62.4 257.2 63.3V80.2H248V60.2ZM309.7 76C309.7 81.6 308.6 86.3 305.2 89.2C302 92 297.6 92.8 293.3 92.8C289.4 92.8 285.4 92 282.7 90.6L284.5 83.6C286.4 84.7 289.5 85.8 293 85.8C297.3 85.8 300.6 83.5 300.6 78.1V76.2H300.5C298.8 78.6 295.9 80 292.6 80C285.3 80 280.2 74.1 280.2 65.7C280.2 56.2 286.3 50.2 293.5 50.2C297.5 50.2 300 51.9 301.5 54.4H301.6L301.9 50.9H309.8C309.7 52.8 309.6 55.3 309.6 59.7V76H309.7ZM300.6 62.8C300.6 62.3 300.5 61.7 300.4 61.1C299.7 58.7 298 57.1 295.5 57.1C292.1 57.1 289.5 60.1 289.5 65.4C289.5 69.8 291.7 73.2 295.4 73.2C297.8 73.2 299.7 71.6 300.3 69.5C300.5 68.8 300.6 67.8 300.6 67V62.8ZM329.4 80.9C320.8 80.9 314.2 75.3 314.2 65.8C314.2 56.3 320.4 50.3 329.9 50.3C338.8 50.3 344.8 56.5 344.8 65.4C344.8 76 337.2 80.9 329.4 80.9ZM329.6 74.3C333.2 74.3 335.4 70.8 335.4 65.5C335.4 61.2 333.7 56.7 329.6 56.7C325.3 56.7 323.6 61.1 323.6 65.5C323.6 70.6 325.7 74.3 329.6 74.3Z"
      fill="#fff"
    />
    <path
      opacity="0.21"
      d="M381.4 76C381.4 81.6 380.3 86.3 376.9 89.2C373.7 92 369.3 92.8 365 92.8C361.1 92.8 357.1 92 354.4 90.6L356.2 83.6C358.1 84.7 361.2 85.8 364.7 85.8C369 85.8 372.3 83.5 372.3 78.1V76.2H372.2C370.5 78.6 367.6 80 364.3 80C357 80 351.9 74.1 351.9 65.7C351.9 56.2 358 50.2 365.2 50.2C369.2 50.2 371.7 51.9 373.2 54.4H373.3L373.6 50.9H381.5C381.4 52.8 381.3 55.3 381.3 59.7V76H381.4ZM372.2 62.8C372.2 62.3 372.1 61.7 372 61.1C371.3 58.7 369.6 57.1 367.1 57.1C363.7 57.1 361.1 60.1 361.1 65.4C361.1 69.8 363.3 73.2 367 73.2C369.4 73.2 371.3 71.6 371.9 69.5C372.1 68.8 372.2 67.8 372.2 67V62.8ZM392 47.3C389.1 47.3 387.3 45.3 387.3 42.7C387.3 40.1 389.2 38.1 392.2 38.1C395.2 38.1 396.9 40.1 397 42.7C396.9 45.2 395 47.3 392 47.3ZM387.5 80.2V50.9H396.6V80.2H387.5ZM430.5 76C430.5 81.6 429.4 86.3 426 89.2C422.8 92 418.4 92.8 414.1 92.8C410.2 92.8 406.2 92 403.5 90.6L405.3 83.6C407.2 84.7 410.3 85.8 413.8 85.8C418.1 85.8 421.4 83.5 421.4 78.1V76.2H421.3C419.6 78.6 416.7 80 413.4 80C406.1 80 401 74.1 401 65.7C401 56.2 407.1 50.2 414.3 50.2C418.3 50.2 420.8 51.9 422.3 54.4H422.4L422.7 50.9H430.6C430.5 52.8 430.4 55.3 430.4 59.7V76H430.5ZM421.4 62.8C421.4 62.3 421.3 61.7 421.2 61.1C420.5 58.7 418.8 57.1 416.3 57.1C412.9 57.1 410.3 60.1 410.3 65.4C410.3 69.8 412.5 73.2 416.2 73.2C418.6 73.2 420.5 71.6 421.1 69.5C421.3 68.8 421.4 67.8 421.4 67V62.8ZM436.6 72.2C438.3 73.2 441.8 74.4 444.5 74.4C447.3 74.4 448.4 73.5 448.4 72C448.4 70.5 447.5 69.7 444.1 68.6C438 66.6 435.6 63.3 435.7 59.8C435.7 54.3 440.4 50.1 447.6 50.1C451 50.1 454 50.9 455.8 51.8L454.2 58C452.9 57.3 450.3 56.4 447.8 56.4C445.6 56.4 444.3 57.3 444.3 58.7C444.3 60.1 445.4 60.9 449 62.1C454.6 64 456.9 66.8 456.9 71.1C456.9 76.6 452.6 80.6 444.2 80.6C440.4 80.6 436.9 79.7 434.7 78.5L436.6 72.2Z"
      fill="#2b2b2b"
    />
  </g>
  <defs>
    <clipPath id="clip0_1_2">
      <rect width="457.1" height="129.5" fill="white" />
    </clipPath>
  </defs>
</svg>
